# xmcd
#
# Track frame offsets:
#	150
#	14876
#	30585
#	46176
#	65541
#	78591
#	94634
#	111226
#	122989
#	141652
#	159036
#	173470
#	188535
#	207397
#	229395
#	244030
#	256720
#	274260
#	289711
#
# Disc length: 4093 seconds
#
# Revision: 0
# Processed by: cddbd v1.5.1PL0 Copyright (c) Steve Scherf et al.
# Submitted via: audiograbber 1.80
#
DISCID=0b0ffb13
DTITLE=VARIOS - VARIOS
DYEAR=1900
DGENRE=
TTITLE0=YO1
TTITLE1=YO2
TTITLE2=YO3
TTITLE3=YO4
TTITLE4=YO  5
TTITLE5=YO6i
TTITLE6=YO  7
TTITLE7=YO  8
TTITLE8=YO  9
TTITLE9=YO 10
TTITLE10=YO 11
TTITLE11=YO 12
TTITLE12=YO 13
TTITLE13=YO 14
TTITLE14=YO 15
TTITLE15=YO 16
TTITLE16=YO 17
TTITLE17=YO18
TTITLE18=YO 19
EXTD=ESTE DISCO ES PARA GRABAR
EXTT0=
EXTT1=
EXTT2=
EXTT3=
EXTT4=
EXTT5=
EXTT6=
EXTT7=
EXTT8=
EXTT9=
EXTT10=
EXTT11=
EXTT12=
EXTT13=
EXTT14=
EXTT15=
EXTT16=
EXTT17=
EXTT18=
PLAYORDER=
